<svg preserveAspectRatio="none" overflow="visible" style="display: block;" width="1164.59" height="1024.84" viewBox="0 0 1164.59 1024.84" fill="none" xmlns="http://www.w3.org/2000/svg">
<g id="Circle 6">
<path id="Vector" d="M582.297 1024.56C903.732 1024.56 1164.31 795.266 1164.31 512.422C1164.31 229.578 903.732 0.287062 582.297 0.287062C260.862 0.287062 0.287062 229.578 0.287062 512.422C0.287062 795.266 260.862 1024.56 582.297 1024.56Z" stroke="#01343F" stroke-opacity="0.16" stroke-width="0.574123" stroke-linecap="round" stroke-linejoin="round"/>
<path id="Vector_2" d="M582.296 1010.1C894.657 1010.1 1147.87 787.28 1147.87 512.421C1147.87 237.562 894.657 14.7446 582.296 14.7446C269.936 14.7446 16.7175 237.562 16.7175 512.421C16.7175 787.28 269.936 1010.1 582.296 1010.1Z" stroke="#01343F" stroke-opacity="0.16" stroke-width="0.574123" stroke-linecap="round" stroke-linejoin="round"/>
<path id="Vector_3" d="M582.296 995.623C885.572 995.623 1131.43 779.286 1131.43 512.421C1131.43 245.556 885.572 29.219 582.296 29.219C279.02 29.219 33.1661 245.556 33.1661 512.421C33.1661 779.286 279.02 995.623 582.296 995.623Z" stroke="#01343F" stroke-opacity="0.16" stroke-width="0.574123" stroke-linecap="round" stroke-linejoin="round"/>
<path id="Vector_4" d="M582.295 981.165C876.496 981.165 1114.99 771.302 1114.99 512.422C1114.99 253.542 876.496 43.678 582.295 43.678C288.094 43.678 49.5963 253.542 49.5963 512.422C49.5963 771.302 288.094 981.165 582.295 981.165Z" stroke="#01343F" stroke-opacity="0.16" stroke-width="0.574123" stroke-linecap="round" stroke-linejoin="round"/>
<path id="Vector_5" d="M582.295 966.691C867.412 966.691 1098.54 763.308 1098.54 512.422C1098.54 261.536 867.412 58.1522 582.295 58.1522C297.178 58.1522 66.045 261.536 66.045 512.422C66.045 763.308 297.178 966.691 582.295 966.691Z" stroke="#01343F" stroke-opacity="0.16" stroke-width="0.574123" stroke-linecap="round" stroke-linejoin="round"/>
<path id="Vector_6" d="M582.297 952.232C858.339 952.232 1082.12 755.322 1082.12 512.421C1082.12 269.52 858.339 72.6099 582.297 72.6099C306.255 72.6099 82.4783 269.52 82.4783 512.421C82.4783 755.322 306.255 952.232 582.297 952.232Z" stroke="#01343F" stroke-opacity="0.16" stroke-width="0.574123" stroke-linecap="round" stroke-linejoin="round"/>
<path id="Vector_7" d="M582.299 937.775C849.267 937.775 1065.69 747.338 1065.69 512.422C1065.69 277.506 849.267 87.069 582.299 87.069C315.331 87.069 98.9115 277.506 98.9115 512.422C98.9115 747.338 315.331 937.775 582.299 937.775Z" stroke="#01343F" stroke-opacity="0.16" stroke-width="0.574123" stroke-linecap="round" stroke-linejoin="round"/>
<path id="Vector_8" d="M582.296 923.301C840.179 923.301 1049.23 739.344 1049.23 512.422C1049.23 285.5 840.179 101.543 582.296 101.543C324.413 101.543 115.357 285.5 115.357 512.422C115.357 739.344 324.413 923.301 582.296 923.301Z" stroke="#01343F" stroke-opacity="0.16" stroke-width="0.574123" stroke-linecap="round" stroke-linejoin="round"/>
<path id="Vector_9" d="M582.298 908.842C831.106 908.842 1032.81 731.358 1032.81 512.421C1032.81 293.484 831.106 116.001 582.298 116.001C333.489 116.001 131.79 293.484 131.79 512.421C131.79 731.358 333.489 908.842 582.298 908.842Z" stroke="#01343F" stroke-opacity="0.16" stroke-width="0.574123" stroke-linecap="round" stroke-linejoin="round"/>
<path id="Vector_10" d="M582.298 894.367C822.022 894.367 1016.36 723.364 1016.36 512.421C1016.36 301.478 822.022 130.475 582.298 130.475C342.574 130.475 148.239 301.478 148.239 512.421C148.239 723.364 342.574 894.367 582.298 894.367Z" stroke="#01343F" stroke-opacity="0.16" stroke-width="0.574123" stroke-linecap="round" stroke-linejoin="round"/>
<path id="Vector_11" d="M582.297 879.91C812.946 879.91 999.924 715.38 999.924 512.422C999.924 309.464 812.946 144.934 582.297 144.934C351.647 144.934 164.669 309.464 164.669 512.422C164.669 715.38 351.647 879.91 582.297 879.91Z" stroke="#01343F" stroke-opacity="0.16" stroke-width="0.574123" stroke-linecap="round" stroke-linejoin="round"/>
<path id="Vector_12" d="M582.296 865.436C803.861 865.436 983.475 707.386 983.475 512.422C983.475 317.458 803.861 159.408 582.296 159.408C360.732 159.408 181.118 317.458 181.118 512.422C181.118 707.386 360.732 865.436 582.296 865.436Z" stroke="#01343F" stroke-opacity="0.16" stroke-width="0.574123" stroke-linecap="round" stroke-linejoin="round"/>
<path id="Vector_13" d="M582.299 850.977C794.789 850.977 967.046 699.401 967.046 512.422C967.046 325.443 794.789 173.866 582.299 173.866C369.808 173.866 197.551 325.443 197.551 512.422C197.551 699.401 369.808 850.977 582.299 850.977Z" stroke="#01343F" stroke-opacity="0.16" stroke-width="0.574123" stroke-linecap="round" stroke-linejoin="round"/>
<path id="Vector_14" d="M582.295 836.519C785.71 836.519 950.611 691.416 950.611 512.422C950.611 333.428 785.71 188.325 582.295 188.325C378.879 188.325 213.978 333.428 213.978 512.422C213.978 691.416 378.879 836.519 582.295 836.519Z" stroke="#01343F" stroke-opacity="0.16" stroke-width="0.574123" stroke-linecap="round" stroke-linejoin="round"/>
<path id="Vector_15" d="M582.298 822.044C776.629 822.044 934.165 683.422 934.165 512.422C934.165 341.422 776.629 202.799 582.298 202.799C387.966 202.799 230.43 341.422 230.43 512.422C230.43 683.422 387.966 822.044 582.298 822.044Z" stroke="#01343F" stroke-opacity="0.16" stroke-width="0.574123" stroke-linecap="round" stroke-linejoin="round"/>
<path id="Vector_16" d="M582.297 807.586C767.553 807.586 917.733 675.436 917.733 512.422C917.733 349.407 767.553 217.257 582.297 217.257C397.04 217.257 246.86 349.407 246.86 512.422C246.86 675.436 397.04 807.586 582.297 807.586Z" stroke="#01343F" stroke-opacity="0.16" stroke-width="0.574123" stroke-linecap="round" stroke-linejoin="round"/>
<path id="Vector_17" d="M582.296 793.112C758.468 793.112 901.284 667.442 901.284 512.422C901.284 357.4 758.468 231.731 582.296 231.731C406.124 231.731 263.309 357.4 263.309 512.422C263.309 667.442 406.124 793.112 582.296 793.112Z" stroke="#01343F" stroke-opacity="0.16" stroke-width="0.574123" stroke-linecap="round" stroke-linejoin="round"/>
<path id="Vector_18" d="M582.298 778.654C749.396 778.654 884.855 659.458 884.855 512.422C884.855 365.386 749.396 246.19 582.298 246.19C415.201 246.19 279.742 365.386 279.742 512.422C279.742 659.458 415.201 778.654 582.298 778.654Z" stroke="#01343F" stroke-opacity="0.16" stroke-width="0.574123" stroke-linecap="round" stroke-linejoin="round"/>
<path id="Vector_19" d="M582.297 764.195C740.32 764.195 868.423 651.472 868.423 512.421C868.423 373.371 740.32 260.648 582.297 260.648C424.275 260.648 296.172 373.371 296.172 512.421C296.172 651.472 424.275 764.195 582.297 764.195Z" stroke="#01343F" stroke-opacity="0.16" stroke-width="0.574123" stroke-linecap="round" stroke-linejoin="round"/>
<path id="Vector_20" d="M582.297 749.721C731.235 749.721 851.974 643.479 851.974 512.422C851.974 381.365 731.235 275.122 582.297 275.122C433.359 275.122 312.621 381.365 312.621 512.422C312.621 643.479 433.359 749.721 582.297 749.721Z" stroke="#01343F" stroke-opacity="0.16" stroke-width="0.574123" stroke-linecap="round" stroke-linejoin="round"/>
<path id="Vector_21" d="M582.299 735.262C722.163 735.262 835.545 635.493 835.545 512.421C835.545 389.349 722.163 289.58 582.299 289.58C442.436 289.58 329.054 389.349 329.054 512.421C329.054 635.493 442.436 735.262 582.299 735.262Z" stroke="#01343F" stroke-opacity="0.16" stroke-width="0.574123" stroke-linecap="round" stroke-linejoin="round"/>
<path id="Vector_22" d="M582.296 720.788C713.075 720.788 819.093 627.499 819.093 512.421C819.093 397.343 713.075 304.054 582.296 304.054C451.517 304.054 345.5 397.343 345.5 512.421C345.5 627.499 451.517 720.788 582.296 720.788Z" stroke="#01343F" stroke-opacity="0.16" stroke-width="0.574123" stroke-linecap="round" stroke-linejoin="round"/>
<path id="Vector_23" d="M582.295 706.33C703.999 706.33 802.66 619.514 802.66 512.422C802.66 405.329 703.999 318.513 582.295 318.513C460.591 318.513 361.93 405.329 361.93 512.422C361.93 619.514 460.591 706.33 582.295 706.33Z" stroke="#01343F" stroke-opacity="0.16" stroke-width="0.574123" stroke-linecap="round" stroke-linejoin="round"/>
<path id="Vector_24" d="M582.297 691.871C694.927 691.871 786.231 611.529 786.231 512.421C786.231 413.314 694.927 332.971 582.297 332.971C469.668 332.971 378.363 413.314 378.363 512.421C378.363 611.529 469.668 691.871 582.297 691.871Z" stroke="#01343F" stroke-opacity="0.16" stroke-width="0.574123" stroke-linecap="round" stroke-linejoin="round"/>
<path id="Vector_25" d="M582.294 677.398C685.839 677.398 769.779 603.535 769.779 512.421C769.779 421.308 685.839 347.445 582.294 347.445C478.749 347.445 394.809 421.308 394.809 512.421C394.809 603.535 478.749 677.398 582.294 677.398Z" stroke="#01343F" stroke-opacity="0.16" stroke-width="0.574123" stroke-linecap="round" stroke-linejoin="round"/>
<path id="Vector_26" d="M582.296 662.939C676.767 662.939 753.35 595.55 753.35 512.422C753.35 429.293 676.767 361.904 582.296 361.904C487.825 361.904 411.242 429.293 411.242 512.422C411.242 595.55 487.825 662.939 582.296 662.939Z" stroke="#01343F" stroke-opacity="0.16" stroke-width="0.574123" stroke-linecap="round" stroke-linejoin="round"/>
<path id="Vector_27" d="M582.296 648.465C667.682 648.465 736.901 587.556 736.901 512.421C736.901 437.287 667.682 376.378 582.296 376.378C496.91 376.378 427.691 437.287 427.691 512.421C427.691 587.556 496.91 648.465 582.296 648.465Z" stroke="#01343F" stroke-opacity="0.16" stroke-width="0.574123" stroke-linecap="round" stroke-linejoin="round"/>
<path id="Vector_28" d="M582.295 634.006C658.606 634.006 720.469 579.571 720.469 512.421C720.469 445.271 658.606 390.836 582.295 390.836C505.983 390.836 444.121 445.271 444.121 512.421C444.121 579.571 505.983 634.006 582.295 634.006Z" stroke="#01343F" stroke-opacity="0.16" stroke-width="0.574123" stroke-linecap="round" stroke-linejoin="round"/>
<path id="Vector_29" d="M582.298 619.532C649.525 619.532 704.023 571.577 704.023 512.421C704.023 453.265 649.525 405.31 582.298 405.31C515.071 405.31 460.573 453.265 460.573 512.421C460.573 571.577 515.071 619.532 582.298 619.532Z" stroke="#01343F" stroke-opacity="0.16" stroke-width="0.574123" stroke-linecap="round" stroke-linejoin="round"/>
<path id="Vector_30" d="M582.297 605.075C640.449 605.075 687.591 563.593 687.591 512.422C687.591 461.251 640.449 419.769 582.297 419.769C524.145 419.769 477.003 461.251 477.003 512.422C477.003 563.593 524.145 605.075 582.297 605.075Z" stroke="#01343F" stroke-opacity="0.16" stroke-width="0.574123" stroke-linecap="round" stroke-linejoin="round"/>
<path id="Vector_31" d="M582.296 590.616C631.374 590.616 671.159 555.607 671.159 512.422C671.159 469.236 631.374 434.227 582.296 434.227C533.218 434.227 493.433 469.236 493.433 512.422C493.433 555.607 533.218 590.616 582.296 590.616Z" stroke="#01343F" stroke-opacity="0.16" stroke-width="0.574123" stroke-linecap="round" stroke-linejoin="round"/>
<path id="Vector_32" d="M582.299 576.142C622.292 576.142 654.713 547.613 654.713 512.422C654.713 477.23 622.292 448.701 582.299 448.701C542.306 448.701 509.885 477.23 509.885 512.422C509.885 547.613 542.306 576.142 582.299 576.142Z" stroke="#01343F" stroke-opacity="0.16" stroke-width="0.574123" stroke-linecap="round" stroke-linejoin="round"/>
</g>
</svg>
