<svg preserveAspectRatio="none" overflow="visible" style="display: block;" width="5625.65" height="597.592" viewBox="0 0 5625.65 597.592" fill="none" xmlns="http://www.w3.org/2000/svg">
<g id="Mask">
<path id="Line 6" fill-rule="evenodd" clip-rule="evenodd" d="M327.123 298.796C452.423 448.013 577.723 597.23 794.36 597.23C849.641 597.23 898.973 587.514 943.876 570.561C812.808 521.077 719.482 409.936 626.155 298.796C500.855 149.578 375.555 0.361389 158.918 0.361389C106.989 0.361389 54.0849 8.93495 1.18485 24.027C136.592 71.8967 231.858 185.346 327.123 298.796Z" fill="white" stroke="#FDA30E" stroke-width="0.72067"/>
<path id="Line 6_2" fill-rule="evenodd" clip-rule="evenodd" d="M1878.35 27.0322C1833.44 10.0794 1784.11 0.363403 1728.83 0.363403C1512.19 0.363403 1386.89 149.58 1261.59 298.798C1168.27 409.938 1074.94 521.079 943.873 570.563C988.776 587.516 1038.11 597.232 1093.39 597.232C1310.03 597.232 1435.33 448.015 1560.63 298.798C1653.95 187.657 1747.28 76.5159 1878.35 27.0322Z" fill="white" stroke="#FDA30E" stroke-width="0.72067"/>
<path id="Line 6_3" fill-rule="evenodd" clip-rule="evenodd" d="M2663.31 597.23C2718.59 597.23 2767.92 587.514 2812.82 570.561C2681.76 521.077 2588.43 409.936 2495.1 298.796C2369.8 149.578 2244.5 0.361389 2027.87 0.361389C1972.59 0.361389 1923.25 10.0774 1878.35 27.0302C2009.42 76.5138 2102.74 187.655 2196.07 298.796C2321.37 448.013 2446.67 597.23 2663.31 597.23Z" fill="white" stroke="#FDA30E" stroke-width="0.72067"/>
<path id="Line 6_4" fill-rule="evenodd" clip-rule="evenodd" d="M3747.3 27.0292C3702.4 10.0764 3653.06 0.360352 3597.78 0.360352C3381.15 0.360352 3255.85 149.577 3130.55 298.795C3037.22 409.935 2943.89 521.076 2812.82 570.56C2857.73 587.513 2907.06 597.229 2962.34 597.229C3178.98 597.229 3304.28 448.012 3429.58 298.795C3522.9 187.654 3616.23 76.5129 3747.3 27.0292Z" fill="white" stroke="#FDA30E" stroke-width="0.72067"/>
<path id="Line 6_5" fill-rule="evenodd" clip-rule="evenodd" d="M4532.26 597.231C4587.54 597.231 4636.87 587.515 4681.77 570.562C4550.71 521.078 4457.38 409.937 4364.05 298.797C4238.75 149.579 4113.45 0.362366 3896.81 0.362366C3841.53 0.362366 3792.2 10.0784 3747.3 27.0312C3878.37 76.5149 3971.69 187.656 4065.02 298.797C4190.32 448.014 4315.62 597.231 4532.26 597.231Z" fill="white" stroke="#FDA30E" stroke-width="0.72067"/>
<path id="Line 8" fill-rule="evenodd" clip-rule="evenodd" d="M5298.53 298.796C5393.79 185.346 5489.06 71.8967 5624.46 24.0271C5571.56 8.935 5518.66 0.361389 5466.73 0.361389C5250.09 0.361389 5124.79 149.579 4999.49 298.796C4906.17 409.936 4812.84 521.077 4681.77 570.561C4726.68 587.514 4776.01 597.23 4831.29 597.23C5047.93 597.23 5173.23 448.013 5298.53 298.796Z" fill="white" stroke="#0F67FD" stroke-width="0.72067"/>
</g>
</svg>
