<svg preserveAspectRatio="none" overflow="visible" style="display: block;" width="79" height="64" viewBox="0 0 79 64" fill="none" xmlns="http://www.w3.org/2000/svg">
<path id="&#226;&#128;&#156;" d="M79 49.6692C79 52.0577 78.514 54.1747 77.5421 56.0204C76.6674 57.7574 75.501 59.2231 74.0431 60.4173C72.5852 61.6115 70.9815 62.5344 69.2321 63.1858C67.5798 63.7286 66.0247 64 64.5668 64C62.3313 64 60.0473 63.4572 57.7146 62.3715C55.4792 61.1773 53.4381 59.4945 51.5915 57.3232C49.7448 55.1518 48.2383 52.5462 47.072 49.5064C45.9057 46.4665 45.3225 43.1009 45.3225 39.4097C45.3225 33.0042 46.3916 27.5216 48.5299 22.9618C50.7653 18.402 53.3895 14.6022 56.4025 11.5623C59.5127 8.41391 62.6715 5.97116 65.8789 4.2341C69.1835 2.38847 71.9049 1.08567 74.0431 0.3257V5.5369C72.0993 6.83969 70.0096 8.25106 67.7742 9.77099C65.6359 11.2909 63.6434 13.0823 61.7968 15.145C60.0473 17.2078 58.5894 19.542 57.4231 22.1476C56.2567 24.7532 55.6736 27.6845 55.6736 30.9415C55.6736 32.57 55.8194 33.8728 56.111 34.8499C56.4025 35.827 56.7427 36.5869 57.1315 37.1298C57.6175 37.6726 58.0548 38.0526 58.4436 38.2697C58.9296 38.4869 59.3183 38.5954 59.6099 38.5954C60.679 38.5954 61.9912 38.2697 63.5463 37.6183C65.1013 36.8584 66.5592 36.4784 67.9199 36.4784C69.1835 36.4784 70.447 36.8041 71.7105 37.4555C73.0712 37.9983 74.2861 38.8668 75.3552 40.0611C76.4244 41.1467 77.2991 42.5038 77.9795 44.1323C78.6598 45.7608 79 47.6064 79 49.6692ZM33.5317 49.3435C33.5317 51.732 33.0458 53.849 32.0738 55.6947C31.1991 57.5403 30.0328 59.0602 28.5749 60.2545C27.117 61.3401 25.5133 62.2087 23.7638 62.8601C22.1115 63.4029 20.5078 63.6743 18.9527 63.6743C16.7173 63.6743 14.4818 63.1315 12.2464 62.0458C10.0109 60.8516 7.96986 59.2231 6.12318 57.1603C4.27651 54.989 2.77001 52.3834 1.60369 49.3435C0.534564 46.3036 0 42.9381 0 39.2468C0 32.8414 1.06913 27.3588 3.20738 22.799C5.44283 18.1306 8.06705 14.2765 11.08 11.2366C14.1902 8.08821 17.349 5.64546 20.5564 3.9084C23.7638 2.06277 26.4366 0.759966 28.5749 0V5.37405C26.631 6.67684 24.5413 8.08821 22.3059 9.60814C20.1676 11.1281 18.1752 12.9194 16.3285 14.9822C14.579 17.045 13.0725 19.3791 11.809 21.9847C10.6427 24.4818 10.0595 27.4131 10.0595 30.7786C10.0595 33.8185 10.5941 35.827 11.6632 36.8041C12.8295 37.7812 13.7043 38.2697 14.2874 38.2697C15.2594 38.2697 16.5229 37.944 18.078 37.2926C19.6331 36.6412 21.091 36.3155 22.4517 36.3155C23.7152 36.3155 24.9787 36.6412 26.2422 37.2926C27.6029 37.8355 28.8178 38.704 29.887 39.8982C30.9561 40.9839 31.8308 42.341 32.5112 43.9695C33.1915 45.4894 33.5317 47.2807 33.5317 49.3435Z" fill="#3B309D"/>
</svg>
