<svg width="1290" height="369" viewBox="0 0 1290 369" fill="none" xmlns="http://www.w3.org/2000/svg">
<g id="zeenovo assure module page - incident reporting">
<g id="Frame 1984077591">
<g clip-path="url(#clip0_69_5452)">
<g id="subject">
<g id="down-2">
<mask id="mask0_69_5452" style="mask-type:alpha" maskUnits="userSpaceOnUse" x="806" y="0" width="936" height="598">
<g id="mask">
<rect id="Rectangle 397" x="806.246" y="0.359375" width="935.102" height="596.873" fill="#D9D9D9"/>
</g>
</mask>
<g mask="url(#mask0_69_5452)">
<g id="down">
<mask id="mask1_69_5452" style="mask-type:alpha" maskUnits="userSpaceOnUse" x="-2007" y="0" width="5627" height="598">
<g id="Masks">
<path id="Line 6" fill-rule="evenodd" clip-rule="evenodd" d="M656.853 0.363281C712.133 0.363281 761.466 10.0793 806.369 27.0321C675.301 76.5158 581.974 187.657 488.648 298.797C363.348 448.015 238.048 597.232 21.4099 597.232C-33.87 597.232 -83.2028 587.516 -128.106 570.563C2.96198 521.079 96.2887 409.938 189.615 298.797C314.915 149.58 440.215 0.363281 656.853 0.363281Z" fill="white" stroke="#FDA30E" stroke-width="0.72067"/>
<path id="Line 6_2" fill-rule="evenodd" clip-rule="evenodd" d="M1740.84 570.563C1695.94 587.516 1646.61 597.232 1591.33 597.232C1374.69 597.232 1249.39 448.015 1124.09 298.797C1030.76 187.657 937.436 76.5158 806.368 27.0321C851.271 10.0793 900.604 0.363281 955.884 0.363281C1172.52 0.363281 1297.82 149.58 1423.12 298.797C1516.45 409.938 1609.78 521.079 1740.84 570.563Z" fill="white" stroke="#FDA30E" stroke-width="0.72067"/>
</g>
</mask>
<g mask="url(#mask1_69_5452)">
<g id="Lines">
<path id="Line 6_3" d="M-3080.88 0.362305C-3080.88 0.362305 -2579.68 597.231 -2146.4 597.231C-1713.13 597.231 -1645.21 0.362305 -1211.93 0.362305C-778.655 0.362305 -710.73 597.231 -277.455 597.231C155.82 597.231 223.745 0.362305 657.02 0.362305C1090.29 0.362305 1158.22 597.231 1591.49 597.231C2024.77 597.231 2092.69 0.362305 2525.97 0.362305C2959.24 0.362305 3027.17 597.231 3460.44 597.231C3893.72 597.231 4394.92 0.362305 4394.92 0.362305" stroke="white" stroke-width="0.72067"/>
<path id="Vector" d="M-3053.7 0.360352C-3053.7 0.360352 -2552.5 597.229 -2119.22 597.229C-1685.95 597.229 -1618.02 0.360352 -1184.75 0.360352C-751.471 0.360352 -683.546 597.229 -250.272 597.229C183.003 597.229 250.928 0.360352 684.203 0.360352C1117.48 0.360352 1185.4 597.229 1618.68 597.229C2051.95 597.229 2119.88 0.360352 2553.15 0.360352C2986.43 0.360352 3054.35 597.229 3487.63 597.229C3920.9 597.229 4422.1 0.360352 4422.1 0.360352" stroke="white" stroke-width="0.72067"/>
<path id="Vector_2" d="M-3026.51 0.360352C-3026.51 0.360352 -2525.31 597.229 -2092.04 597.229C-1658.76 597.229 -1590.84 0.360352 -1157.56 0.360352C-724.285 0.360352 -656.361 597.229 -223.086 597.229C210.189 597.229 278.114 0.360352 711.389 0.360352C1144.66 0.360352 1212.59 597.229 1645.86 597.229C2079.14 597.229 2147.06 0.360352 2580.34 0.360352C3013.61 0.360352 3081.54 597.229 3514.81 597.229C3948.09 597.229 4449.29 0.360352 4449.29 0.360352" stroke="white" stroke-width="0.72067"/>
<path id="Vector_3" d="M-2999.32 0.364258C-2999.32 0.364258 -2498.12 597.233 -2064.85 597.233C-1631.57 597.233 -1563.65 0.364258 -1130.37 0.364258C-697.099 0.364258 -629.174 597.233 -195.9 597.233C237.375 597.233 305.3 0.364258 738.575 0.364258C1171.85 0.364258 1239.78 597.233 1673.05 597.233C2106.33 597.233 2174.25 0.364258 2607.52 0.364258C3040.8 0.364258 3108.72 597.233 3542 597.233C3975.27 597.233 4476.47 0.364258 4476.47 0.364258" stroke="white" stroke-width="0.72067"/>
<path id="Vector_4" d="M-2972.14 0.364258C-2972.14 0.364258 -2470.94 597.233 -2037.67 597.233C-1604.39 597.233 -1536.47 0.364258 -1103.19 0.364258C-669.916 0.364258 -601.991 597.233 -168.716 597.233C264.559 597.233 332.484 0.364258 765.759 0.364258C1199.03 0.364258 1266.96 597.233 1700.23 597.233C2133.51 597.233 2201.43 0.364258 2634.71 0.364258C3067.98 0.364258 3135.91 597.233 3569.18 597.233C4002.46 597.233 4503.66 0.364258 4503.66 0.364258" stroke="white" stroke-width="0.72067"/>
<path id="Vector_5" d="M-2944.95 0.362305C-2944.95 0.362305 -2443.75 597.231 -2010.48 597.231C-1577.2 597.231 -1509.28 0.362305 -1076 0.362305C-642.73 0.362305 -574.805 597.231 -141.53 597.231C291.745 597.231 359.67 0.362305 792.945 0.362305C1226.22 0.362305 1294.14 597.231 1727.42 597.231C2160.69 597.231 2228.62 0.362305 2661.89 0.362305C3095.17 0.362305 3163.09 597.231 3596.37 597.231C4029.64 597.231 4530.84 0.362305 4530.84 0.362305" stroke="white" stroke-width="0.72067"/>
<path id="Vector_6" d="M-2917.77 0.362305C-2917.77 0.362305 -2416.57 597.231 -1983.29 597.231C-1550.02 597.231 -1482.09 0.362305 -1048.82 0.362305C-615.544 0.362305 -547.619 597.231 -114.344 597.231C318.931 597.231 386.856 0.362305 820.131 0.362305C1253.41 0.362305 1321.33 597.231 1754.61 597.231C2187.88 597.231 2255.81 0.362305 2689.08 0.362305C3122.36 0.362305 3190.28 597.231 3623.55 597.231C4056.83 597.231 4558.03 0.362305 4558.03 0.362305" stroke="white" stroke-width="0.72067"/>
<path id="Vector_7" d="M-2890.58 0.364258C-2890.58 0.364258 -2389.38 597.233 -1956.11 597.233C-1522.83 597.233 -1454.91 0.364258 -1021.64 0.364258C-588.36 0.364258 -520.435 597.233 -87.1603 597.233C346.115 597.233 414.04 0.364258 847.315 0.364258C1280.59 0.364258 1348.51 597.233 1781.79 597.233C2215.06 597.233 2282.99 0.364258 2716.26 0.364258C3149.54 0.364258 3217.46 597.233 3650.74 597.233C4084.01 597.233 4585.21 0.364258 4585.21 0.364258" stroke="white" stroke-width="0.72067"/>
<path id="Vector_8" d="M-2863.4 0.364258C-2863.4 0.364258 -2362.2 597.233 -1928.93 597.233C-1495.65 597.233 -1427.73 0.364258 -994.451 0.364258C-561.176 0.364258 -493.252 597.233 -59.9765 597.233C373.298 597.233 441.223 0.364258 874.498 0.364258C1307.77 0.364258 1375.7 597.233 1808.97 597.233C2242.25 597.233 2310.17 0.364258 2743.45 0.364258C3176.72 0.364258 3244.65 597.233 3677.92 597.233C4111.2 597.233 4612.4 0.364258 4612.4 0.364258" stroke="white" stroke-width="0.72067"/>
<path id="Vector_9" d="M-2836.22 0.362305C-2836.22 0.362305 -2335.02 597.231 -1901.74 597.231C-1468.47 597.231 -1400.54 0.362305 -967.268 0.362305C-533.993 0.362305 -466.068 597.231 -32.7928 597.231C400.482 597.231 468.407 0.362305 901.682 0.362305C1334.96 0.362305 1402.88 597.231 1836.16 597.231C2269.43 597.231 2337.36 0.362305 2770.63 0.362305C3203.91 0.362305 3271.83 597.231 3705.11 597.231C4138.38 597.231 4639.58 0.362305 4639.58 0.362305" stroke="white" stroke-width="0.72067"/>
<path id="Vector_10" d="M-2809.03 0.360352C-2809.03 0.360352 -2307.83 597.229 -1874.56 597.229C-1441.28 597.229 -1373.36 0.360352 -940.082 0.360352C-506.807 0.360352 -438.882 597.229 -5.60706 597.229C427.668 597.229 495.593 0.360352 928.868 0.360352C1362.14 0.360352 1430.07 597.229 1863.34 597.229C2296.62 597.229 2364.54 0.360352 2797.82 0.360352C3231.09 0.360352 3299.02 597.229 3732.29 597.229C4165.57 597.229 4666.77 0.360352 4666.77 0.360352" stroke="white" stroke-width="0.72067"/>
<path id="Line 8" d="M-2781.85 0.362305C-2781.85 0.362305 -2280.65 597.231 -1847.37 597.231C-1414.1 597.231 -1346.17 0.362305 -912.898 0.362305C-479.623 0.362305 -411.698 597.231 21.5767 597.231C454.852 597.231 522.777 0.362305 956.052 0.362305C1389.33 0.362305 1457.25 597.231 1890.53 597.231C2323.8 597.231 2391.73 0.362305 2825 0.362305C3258.28 0.362305 3326.2 597.231 3759.48 597.231C4192.75 597.231 4693.95 0.362305 4693.95 0.362305" stroke="white" stroke-width="0.72067"/>
</g>
</g>
</g>
</g>
</g>
<g id="up">
<mask id="mask2_69_5452" style="mask-type:alpha" maskUnits="userSpaceOnUse" x="-2007" y="-1" width="5626" height="599">
<g id="Mask">
<path id="Line 6_4" fill-rule="evenodd" clip-rule="evenodd" d="M656.564 597.228C711.844 597.228 761.177 587.512 806.08 570.559C675.013 521.076 581.686 409.935 488.359 298.794C363.059 149.577 237.759 0.35968 21.1214 0.35968C-34.1586 0.35968 -83.4914 10.0757 -128.395 27.0285C2.6734 76.5121 96.0001 187.653 189.327 298.794C314.627 448.011 439.927 597.228 656.564 597.228Z" fill="white" stroke="#FDA30E" stroke-width="0.72067"/>
<path id="Line 6_5" fill-rule="evenodd" clip-rule="evenodd" d="M1740.55 27.0276C1695.65 10.0747 1646.32 0.358704 1591.04 0.358704C1374.4 0.358704 1249.1 149.576 1123.8 298.793C1030.47 409.934 937.147 521.075 806.08 570.558C850.983 587.511 900.316 597.227 955.596 597.227C1172.23 597.227 1297.53 448.01 1422.83 298.793C1516.16 187.652 1609.49 76.5112 1740.55 27.0276Z" fill="white" stroke="#FDA30E" stroke-width="0.72067"/>
</g>
</mask>
<g mask="url(#mask2_69_5452)">
<g id="Lines_2">
<path id="Line 6_6" d="M-3081.17 597.233C-3081.17 597.233 -2579.97 0.364548 -2146.69 0.364548C-1713.42 0.364548 -1645.49 597.233 -1212.22 597.233C-778.943 597.233 -711.018 0.364548 -277.743 0.364548C155.532 0.364548 223.456 597.233 656.731 597.233C1090.01 597.233 1157.93 0.364548 1591.21 0.364548C2024.48 0.364548 2092.41 597.233 2525.68 597.233C2958.96 597.233 3026.88 0.364548 3460.16 0.364548C3893.43 0.364548 4394.63 597.233 4394.63 597.233" stroke="white" stroke-width="0.72067"/>
<path id="Vector_11" d="M-3053.99 597.23C-3053.99 597.23 -2552.79 0.361633 -2119.51 0.361633C-1686.24 0.361633 -1618.31 597.23 -1185.04 597.23C-751.762 597.23 -683.837 0.361633 -250.562 0.361633C182.713 0.361633 250.637 597.23 683.912 597.23C1117.19 597.23 1185.11 0.361633 1618.39 0.361633C2051.66 0.361633 2119.59 597.23 2552.86 597.23C2986.14 597.23 3054.06 0.361633 3487.34 0.361633C3920.61 0.361633 4421.81 597.23 4421.81 597.23" stroke="white" stroke-width="0.72067"/>
<path id="Vector_12" d="M-3026.8 597.232C-3026.8 597.232 -2525.6 0.363586 -2092.32 0.363586C-1659.05 0.363586 -1591.12 597.232 -1157.85 597.232C-724.574 597.232 -656.649 0.363586 -223.374 0.363586C209.901 0.363586 277.826 597.232 711.101 597.232C1144.38 597.232 1212.3 0.363586 1645.58 0.363586C2078.85 0.363586 2146.78 597.232 2580.05 597.232C3013.33 597.232 3081.25 0.363586 3514.53 0.363586C3947.8 0.363586 4449 597.232 4449 597.232" stroke="white" stroke-width="0.72067"/>
<path id="Vector_13" d="M-2999.62 597.229C-2999.62 597.229 -2498.42 0.360168 -2065.14 0.360168C-1631.87 0.360168 -1563.94 597.229 -1130.67 597.229C-697.393 597.229 -629.468 0.360168 -196.193 0.360168C237.082 0.360168 305.007 597.229 738.282 597.229C1171.56 597.229 1239.48 0.360168 1672.76 0.360168C2106.03 0.360168 2173.96 597.229 2607.23 597.229C3040.51 597.229 3108.43 0.360168 3541.71 0.360168C3974.98 0.360168 4476.18 597.229 4476.18 597.229" stroke="white" stroke-width="0.72067"/>
<path id="Vector_14" d="M-2972.43 597.234C-2972.43 597.234 -2471.23 0.36554 -2037.96 0.36554C-1604.68 0.36554 -1536.76 597.234 -1103.48 597.234C-670.207 597.234 -602.282 0.36554 -169.007 0.36554C264.268 0.36554 332.193 597.234 765.468 597.234C1198.74 597.234 1266.67 0.36554 1699.94 0.36554C2133.22 0.36554 2201.14 597.234 2634.42 597.234C3067.69 597.234 3135.62 0.36554 3568.89 0.36554C4002.17 0.36554 4503.37 597.234 4503.37 597.234" stroke="white" stroke-width="0.72067"/>
<path id="Vector_15" d="M-2945.25 597.232C-2945.25 597.232 -2444.05 0.363586 -2010.77 0.363586C-1577.5 0.363586 -1509.57 597.232 -1076.3 597.232C-643.02 597.232 -575.096 0.363586 -141.821 0.363586C291.454 0.363586 359.379 597.232 792.654 597.232C1225.93 597.232 1293.85 0.363586 1727.13 0.363586C2160.4 0.363586 2228.33 597.232 2661.6 597.232C3094.88 597.232 3162.8 0.363586 3596.08 0.363586C4029.35 0.363586 4530.55 597.232 4530.55 597.232" stroke="white" stroke-width="0.72067"/>
<path id="Vector_16" d="M-2918.06 597.232C-2918.06 597.232 -2416.86 0.363586 -1983.59 0.363586C-1550.31 0.363586 -1482.39 597.232 -1049.11 597.232C-615.837 597.232 -547.912 0.363586 -114.637 0.363586C318.638 0.363586 386.563 597.232 819.838 597.232C1253.11 597.232 1321.04 0.363586 1754.31 0.363586C2187.59 0.363586 2255.51 597.232 2688.79 597.232C3122.06 597.232 3189.99 0.363586 3623.26 0.363586C4056.54 0.363586 4557.74 597.232 4557.74 597.232" stroke="white" stroke-width="0.72067"/>
<path id="Vector_17" d="M-2890.88 597.23C-2890.88 597.23 -2389.68 0.361633 -1956.4 0.361633C-1523.13 0.361633 -1455.2 597.23 -1021.93 597.23C-588.651 597.23 -520.726 0.361633 -87.4509 0.361633C345.824 0.361633 413.749 597.23 847.024 597.23C1280.3 597.23 1348.22 0.361633 1781.5 0.361633C2214.77 0.361633 2282.7 597.23 2715.97 597.23C3149.25 597.23 3217.17 0.361633 3650.45 0.361633C4083.72 0.361633 4584.92 597.23 4584.92 597.23" stroke="white" stroke-width="0.72067"/>
<path id="Vector_18" d="M-2863.69 597.23C-2863.69 597.23 -2362.49 0.361633 -1929.22 0.361633C-1495.94 0.361633 -1428.02 597.23 -994.742 597.23C-561.467 597.23 -493.542 0.361633 -60.2674 0.361633C373.008 0.361633 440.932 597.23 874.207 597.23C1307.48 597.23 1375.41 0.361633 1808.68 0.361633C2241.96 0.361633 2309.88 597.23 2743.16 597.23C3176.43 597.23 3244.36 0.361633 3677.63 0.361633C4110.91 0.361633 4612.11 597.23 4612.11 597.23" stroke="white" stroke-width="0.72067"/>
<path id="Vector_19" d="M-2836.51 597.232C-2836.51 597.232 -2335.31 0.363586 -1902.03 0.363586C-1468.76 0.363586 -1400.83 597.232 -967.559 597.232C-534.284 597.232 -466.359 0.363586 -33.0837 0.363586C400.191 0.363586 468.116 597.232 901.391 597.232C1334.67 597.232 1402.59 0.363586 1835.87 0.363586C2269.14 0.363586 2337.07 597.232 2770.34 597.232C3203.62 597.232 3271.54 0.363586 3704.82 0.363586C4138.09 0.363586 4639.29 597.232 4639.29 597.232" stroke="white" stroke-width="0.72067"/>
<path id="Vector_20" d="M-2809.32 597.23C-2809.32 597.23 -2308.12 0.361633 -1874.85 0.361633C-1441.57 0.361633 -1373.65 597.23 -940.372 597.23C-507.098 597.23 -439.173 0.361633 -5.89768 0.361633C427.377 0.361633 495.302 597.23 928.577 597.23C1361.85 597.23 1429.78 0.361633 1863.05 0.361633C2296.33 0.361633 2364.25 597.23 2797.53 597.23C3230.8 597.23 3298.73 0.361633 3732 0.361633C4165.28 0.361633 4666.48 597.23 4666.48 597.23" stroke="white" stroke-width="0.72067"/>
<path id="Line 8_2" d="M-2782.14 597.231C-2782.14 597.231 -2280.94 0.362595 -1847.66 0.362595C-1414.39 0.362595 -1346.46 597.231 -913.189 597.231C-479.914 597.231 -411.989 0.362595 21.2858 0.362595C454.561 0.362595 522.486 597.231 955.761 597.231C1389.04 597.231 1456.96 0.362595 1890.24 0.362595C2323.51 0.362595 2391.44 597.231 2824.71 597.231C3257.99 597.231 3325.91 0.362595 3759.19 0.362595C4192.46 0.362595 4693.66 597.231 4693.66 597.231" stroke="white" stroke-width="0.72067"/>
</g>
</g>
</g>
<g id="down-1">
<mask id="mask3_69_5452" style="mask-type:alpha" maskUnits="userSpaceOnUse" x="-2006" y="0" width="5624" height="598">
<g id="mask_2">
<rect id="Rectangle 397_2" x="-2005.55" y="0.362793" width="2811.52" height="596.873" fill="#D9D9D9"/>
</g>
</mask>
<g mask="url(#mask3_69_5452)">
<g id="down_2">
<mask id="mask4_69_5452" style="mask-type:alpha" maskUnits="userSpaceOnUse" x="-2007" y="0" width="5626" height="598">
<g id="Masks_2">
<path id="Line 6_7" fill-rule="evenodd" clip-rule="evenodd" d="M656.571 0.365723C711.851 0.365723 761.184 10.0818 806.087 27.0346C675.019 76.5182 581.692 187.659 488.366 298.8C363.065 448.017 237.765 597.234 21.1277 597.234C-34.1523 597.234 -83.485 587.518 -128.388 570.565C2.67975 521.082 96.0064 409.941 189.333 298.8C314.633 149.583 439.933 0.365723 656.571 0.365723Z" fill="white" stroke="#FDA30E" stroke-width="0.72067"/>
<path id="Line 6_8" fill-rule="evenodd" clip-rule="evenodd" d="M1740.57 570.567C1695.66 587.52 1646.33 597.236 1591.05 597.236C1374.41 597.236 1249.11 448.019 1123.81 298.802C1030.49 187.661 937.159 76.5202 806.091 27.0365C850.994 10.0837 900.327 0.367676 955.607 0.367676C1172.24 0.367676 1297.54 149.585 1422.84 298.802C1516.17 409.943 1609.5 521.083 1740.57 570.567Z" fill="white" stroke="#FDA30E" stroke-width="0.72067"/>
</g>
</mask>
<g mask="url(#mask4_69_5452)">
<g id="Lines_3">
<path id="Line 6_9" d="M-3081.16 0.365234C-3081.16 0.365234 -2579.96 597.234 -2146.68 597.234C-1713.41 597.234 -1645.48 0.365234 -1212.21 0.365234C-778.934 0.365234 -711.009 597.234 -277.734 597.234C155.541 597.234 223.466 0.365234 656.741 0.365234C1090.02 0.365234 1157.94 597.234 1591.22 597.234C2024.49 597.234 2092.42 0.365234 2525.69 0.365234C2958.97 0.365234 3026.89 597.234 3460.17 597.234C3893.44 597.234 4394.64 0.365234 4394.64 0.365234" stroke="white" stroke-width="0.72067"/>
<path id="Vector_21" d="M-3053.98 0.361328C-3053.98 0.361328 -2552.78 597.23 -2119.5 597.23C-1686.23 597.23 -1618.3 0.361328 -1185.03 0.361328C-751.753 0.361328 -683.828 597.23 -250.553 597.23C182.722 597.23 250.647 0.361328 683.922 0.361328C1117.2 0.361328 1185.12 597.23 1618.4 597.23C2051.67 597.23 2119.6 0.361328 2552.87 0.361328C2986.15 0.361328 3054.07 597.23 3487.35 597.23C3920.62 597.23 4421.82 0.361328 4421.82 0.361328" stroke="white" stroke-width="0.72067"/>
<path id="Vector_22" d="M-3026.79 0.361328C-3026.79 0.361328 -2525.59 597.23 -2092.32 597.23C-1659.04 597.23 -1591.12 0.361328 -1157.84 0.361328C-724.569 0.361328 -656.644 597.23 -223.37 597.23C209.905 597.23 277.83 0.361328 711.105 0.361328C1144.38 0.361328 1212.31 597.23 1645.58 597.23C2078.86 597.23 2146.78 0.361328 2580.05 0.361328C3013.33 0.361328 3081.25 597.23 3514.53 597.23C3947.8 597.23 4449 0.361328 4449 0.361328" stroke="white" stroke-width="0.72067"/>
<path id="Vector_23" d="M-2999.61 0.365234C-2999.61 0.365234 -2498.41 597.234 -2065.13 597.234C-1631.86 597.234 -1563.93 0.365234 -1130.66 0.365234C-697.381 0.365234 -629.456 597.234 -196.181 597.234C237.094 597.234 305.019 0.365234 738.294 0.365234C1171.57 0.365234 1239.49 597.234 1672.77 597.234C2106.04 597.234 2173.97 0.365234 2607.24 0.365234C3040.52 0.365234 3108.44 597.234 3541.72 597.234C3974.99 597.234 4476.19 0.365234 4476.19 0.365234" stroke="white" stroke-width="0.72067"/>
<path id="Vector_24" d="M-2972.42 0.365234C-2972.42 0.365234 -2471.22 597.234 -2037.95 597.234C-1604.67 597.234 -1536.75 0.365234 -1103.47 0.365234C-670.197 0.365234 -602.272 597.234 -168.997 597.234C264.277 597.234 332.202 0.365234 765.477 0.365234C1198.75 0.365234 1266.68 597.234 1699.95 597.234C2133.23 597.234 2201.15 0.365234 2634.43 0.365234C3067.7 0.365234 3135.63 597.234 3568.9 597.234C4002.18 597.234 4503.38 0.365234 4503.38 0.365234" stroke="white" stroke-width="0.72067"/>
<path id="Vector_25" d="M-2945.24 0.363281C-2945.24 0.363281 -2444.04 597.232 -2010.76 597.232C-1577.49 597.232 -1509.56 0.363281 -1076.29 0.363281C-643.011 0.363281 -575.086 597.232 -141.811 597.232C291.463 597.232 359.388 0.363281 792.663 0.363281C1225.94 0.363281 1293.86 597.232 1727.14 597.232C2160.41 597.232 2228.34 0.363281 2661.61 0.363281C3094.89 0.363281 3162.81 597.232 3596.09 597.232C4029.36 597.232 4530.56 0.363281 4530.56 0.363281" stroke="white" stroke-width="0.72067"/>
<path id="Vector_26" d="M-2918.05 0.363281C-2918.05 0.363281 -2416.85 597.232 -1983.58 597.232C-1550.3 597.232 -1482.38 0.363281 -1049.1 0.363281C-615.828 0.363281 -547.903 597.232 -114.628 597.232C318.647 597.232 386.572 0.363281 819.847 0.363281C1253.12 0.363281 1321.05 597.232 1754.32 597.232C2187.6 597.232 2255.52 0.363281 2688.8 0.363281C3122.07 0.363281 3190 597.232 3623.27 597.232C4056.55 597.232 4557.75 0.363281 4557.75 0.363281" stroke="white" stroke-width="0.72067"/>
<path id="Vector_27" d="M-2890.87 0.364258C-2890.87 0.364258 -2389.67 597.233 -1956.39 597.233C-1523.12 597.233 -1455.19 0.364258 -1021.92 0.364258C-588.644 0.364258 -520.719 597.233 -87.4442 597.233C345.831 597.233 413.756 0.364258 847.031 0.364258C1280.31 0.364258 1348.23 597.233 1781.51 597.233C2214.78 597.233 2282.71 0.364258 2715.98 0.364258C3149.26 0.364258 3217.18 597.233 3650.45 597.233C4083.73 597.233 4584.93 0.364258 4584.93 0.364258" stroke="white" stroke-width="0.72067"/>
<path id="Vector_28" d="M-2863.69 0.364258C-2863.69 0.364258 -2362.49 597.233 -1929.21 597.233C-1495.94 597.233 -1428.01 0.364258 -994.736 0.364258C-561.461 0.364258 -493.536 597.233 -60.2608 597.233C373.014 597.233 440.939 0.364258 874.214 0.364258C1307.49 0.364258 1375.41 597.233 1808.69 597.233C2241.96 597.233 2309.89 0.364258 2743.16 0.364258C3176.44 0.364258 3244.36 597.233 3677.64 597.233C4110.91 597.233 4612.11 0.364258 4612.11 0.364258" stroke="white" stroke-width="0.72067"/>
<path id="Vector_29" d="M-2836.5 0.363281C-2836.5 0.363281 -2335.3 597.232 -1902.02 597.232C-1468.75 597.232 -1400.82 0.363281 -967.55 0.363281C-534.275 0.363281 -466.35 597.232 -33.0747 597.232C400.2 597.232 468.125 0.363281 901.4 0.363281C1334.68 0.363281 1402.6 597.232 1835.87 597.232C2269.15 597.232 2337.07 0.363281 2770.35 0.363281C3203.62 0.363281 3271.55 597.232 3704.82 597.232C4138.1 597.232 4639.3 0.363281 4639.3 0.363281" stroke="white" stroke-width="0.72067"/>
<path id="Vector_30" d="M-2809.31 0.361328C-2809.31 0.361328 -2308.11 597.23 -1874.84 597.23C-1441.56 597.23 -1373.64 0.361328 -940.364 0.361328C-507.089 0.361328 -439.164 597.23 -5.88876 597.23C427.386 597.23 495.311 0.361328 928.586 0.361328C1361.86 0.361328 1429.79 597.23 1863.06 597.23C2296.34 597.23 2364.26 0.361328 2797.54 0.361328C3230.81 0.361328 3298.74 597.23 3732.01 597.23C4165.29 597.23 4666.49 0.361328 4666.49 0.361328" stroke="white" stroke-width="0.72067"/>
<path id="Line 8_3" d="M-2782.13 0.363281C-2782.13 0.363281 -2280.93 597.232 -1847.65 597.232C-1414.38 597.232 -1346.45 0.363281 -913.18 0.363281C-479.905 0.363281 -411.98 597.232 21.295 597.232C454.57 597.232 522.495 0.363281 955.77 0.363281C1389.04 0.363281 1456.97 597.232 1890.24 597.232C2323.52 597.232 2391.44 0.363281 2824.72 0.363281C3257.99 0.363281 3325.92 597.232 3759.19 597.232C4192.47 597.232 4693.67 0.363281 4693.67 0.363281" stroke="white" stroke-width="0.72067"/>
</g>
</g>
</g>
</g>
</g>
<g id="interwin-underneath">
<mask id="mask5_69_5452" style="mask-type:alpha" maskUnits="userSpaceOnUse" x="806" y="0" width="2813" height="598">
<g id="mask_3">
<rect id="Rectangle 396" x="806.246" y="0.361816" width="934.161" height="596.868" fill="#D9D9D9"/>
</g>
</mask>
<g mask="url(#mask5_69_5452)">
<g id="up_2">
<mask id="mask6_69_5452" style="mask-type:alpha" maskUnits="userSpaceOnUse" x="-2007" y="-1" width="5626" height="599">
<g id="Mask_2">
<path id="Line 6_10" fill-rule="evenodd" clip-rule="evenodd" d="M656.561 597.225C711.841 597.225 761.174 587.509 806.077 570.556C675.01 521.072 581.683 409.931 488.356 298.79C363.056 149.573 237.756 0.356262 21.1184 0.356262C-34.1615 0.356262 -83.4943 10.0723 -128.397 27.0251C2.67047 76.5087 95.9972 187.65 189.324 298.79C314.624 448.008 439.924 597.225 656.561 597.225Z" fill="white" stroke="#FDA30E" stroke-width="0.72067"/>
<path id="Line 6_11" fill-rule="evenodd" clip-rule="evenodd" d="M1740.55 27.0281C1695.65 10.0752 1646.32 0.359192 1591.04 0.359192C1374.4 0.359192 1249.1 149.576 1123.8 298.793C1030.47 409.934 937.148 521.075 806.08 570.559C850.983 587.511 900.316 597.228 955.596 597.228C1172.23 597.228 1297.53 448.01 1422.83 298.793C1516.16 187.653 1609.49 76.5117 1740.55 27.0281Z" fill="white" stroke="#FDA30E" stroke-width="0.72067"/>
</g>
</mask>
<g mask="url(#mask6_69_5452)">
<g id="Lines_4">
<path id="Line 6_12" d="M-3081.17 597.227C-3081.17 597.227 -2579.97 0.358688 -2146.69 0.358688C-1713.42 0.358688 -1645.49 597.227 -1212.22 597.227C-778.941 597.227 -711.016 0.358688 -277.741 0.358688C155.534 0.358688 223.458 597.227 656.733 597.227C1090.01 597.227 1157.93 0.358688 1591.21 0.358688C2024.48 0.358688 2092.41 597.227 2525.68 597.227C2958.96 597.227 3026.88 0.358688 3460.16 0.358688C3893.43 0.358688 4394.63 597.227 4394.63 597.227" stroke="white" stroke-width="0.72067"/>
<path id="Vector_31" d="M-3053.98 597.228C-3053.98 597.228 -2552.78 0.35968 -2119.51 0.35968C-1686.23 0.35968 -1618.31 597.228 -1185.03 597.228C-751.755 597.228 -683.83 0.35968 -250.555 0.35968C182.72 0.35968 250.644 597.228 683.919 597.228C1117.19 597.228 1185.12 0.35968 1618.39 0.35968C2051.67 0.35968 2119.59 597.228 2552.87 597.228C2986.14 597.228 3054.07 0.35968 3487.34 0.35968C3920.62 0.35968 4421.82 597.228 4421.82 597.228" stroke="white" stroke-width="0.72067"/>
<path id="Vector_32" d="M-3026.8 597.228C-3026.8 597.228 -2525.6 0.35968 -2092.32 0.35968C-1659.05 0.35968 -1591.12 597.228 -1157.85 597.228C-724.572 597.228 -656.647 0.35968 -223.372 0.35968C209.903 0.35968 277.828 597.228 711.103 597.228C1144.38 597.228 1212.3 0.35968 1645.58 0.35968C2078.85 0.35968 2146.78 597.228 2580.05 597.228C3013.33 597.228 3081.25 0.35968 3514.53 0.35968C3947.8 0.35968 4449 597.228 4449 597.228" stroke="white" stroke-width="0.72067"/>
<path id="Vector_33" d="M-2999.61 597.226C-2999.61 597.226 -2498.41 0.357727 -2065.14 0.357727C-1631.86 0.357727 -1563.94 597.226 -1130.66 597.226C-697.386 597.226 -629.461 0.357727 -196.186 0.357727C237.089 0.357727 305.014 597.226 738.289 597.226C1171.56 597.226 1239.49 0.357727 1672.76 0.357727C2106.04 0.357727 2173.96 597.226 2607.24 597.226C3040.51 597.226 3108.44 0.357727 3541.71 0.357727C3974.99 0.357727 4476.19 597.226 4476.19 597.226" stroke="white" stroke-width="0.72067"/>
<path id="Vector_34" d="M-2972.43 597.226C-2972.43 597.226 -2471.23 0.357727 -2037.95 0.357727C-1604.68 0.357727 -1536.75 597.226 -1103.48 597.226C-670.202 597.226 -602.277 0.357727 -169.002 0.357727C264.273 0.357727 332.198 597.226 765.473 597.226C1198.75 597.226 1266.67 0.357727 1699.95 0.357727C2133.22 0.357727 2201.15 597.226 2634.42 597.226C3067.7 597.226 3135.62 0.357727 3568.9 0.357727C4002.17 0.357727 4503.37 597.226 4503.37 597.226" stroke="white" stroke-width="0.72067"/>
<path id="Vector_35" d="M-2945.24 597.225C-2945.24 597.225 -2444.04 0.35675 -2010.77 0.35675C-1577.49 0.35675 -1509.57 597.225 -1076.29 597.225C-643.019 597.225 -575.094 0.35675 -141.819 0.35675C291.456 0.35675 359.381 597.225 792.656 597.225C1225.93 597.225 1293.86 0.35675 1727.13 0.35675C2160.41 0.35675 2228.33 597.225 2661.61 597.225C3094.88 597.225 3162.81 0.35675 3596.08 0.35675C4029.36 0.35675 4530.56 597.225 4530.56 597.225" stroke="white" stroke-width="0.72067"/>
<path id="Vector_36" d="M-2918.05 597.229C-2918.05 597.229 -2416.85 0.361145 -1983.58 0.361145C-1550.3 0.361145 -1482.38 597.229 -1049.11 597.229C-615.83 597.229 -547.905 0.361145 -114.63 0.361145C318.645 0.361145 386.57 597.229 819.845 597.229C1253.12 597.229 1321.04 0.361145 1754.32 0.361145C2187.59 0.361145 2255.52 597.229 2688.79 597.229C3122.07 597.229 3189.99 0.361145 3623.27 0.361145C4056.54 0.361145 4557.74 597.229 4557.74 597.229" stroke="white" stroke-width="0.72067"/>
<path id="Vector_37" d="M-2890.87 597.226C-2890.87 597.226 -2389.67 0.357727 -1956.4 0.357727C-1523.12 0.357727 -1455.2 597.226 -1021.92 597.226C-588.649 597.226 -520.724 0.357727 -87.4489 0.357727C345.826 0.357727 413.751 597.226 847.026 597.226C1280.3 597.226 1348.23 0.357727 1781.5 0.357727C2214.78 0.357727 2282.7 597.226 2715.98 597.226C3149.25 597.226 3217.17 0.357727 3650.45 0.357727C4083.72 0.357727 4584.93 597.226 4584.93 597.226" stroke="white" stroke-width="0.72067"/>
<path id="Vector_38" d="M-2863.68 597.227C-2863.68 597.227 -2362.49 0.358704 -1929.21 0.358704C-1495.94 0.358704 -1428.01 597.227 -994.735 597.227C-561.46 597.227 -493.535 0.358704 -60.2604 0.358704C373.015 0.358704 440.939 597.227 874.214 597.227C1307.49 597.227 1375.41 0.358704 1808.69 0.358704C2241.96 0.358704 2309.89 597.227 2743.16 597.227C3176.44 597.227 3244.36 0.358704 3677.64 0.358704C4110.91 0.358704 4612.11 597.227 4612.11 597.227" stroke="white" stroke-width="0.72067"/>
<path id="Vector_39" d="M-2836.51 597.228C-2836.51 597.228 -2335.31 0.35968 -1902.03 0.35968C-1468.76 0.35968 -1400.83 597.228 -967.556 597.228C-534.281 597.228 -466.356 0.35968 -33.0815 0.35968C400.193 0.35968 468.118 597.228 901.393 597.228C1334.67 597.228 1402.59 0.35968 1835.87 0.35968C2269.14 0.35968 2337.07 597.228 2770.34 597.228C3203.62 597.228 3271.54 0.35968 3704.82 0.35968C4138.09 0.35968 4639.29 597.228 4639.29 597.228" stroke="white" stroke-width="0.72067"/>
<path id="Vector_40" d="M-2809.32 597.228C-2809.32 597.228 -2308.12 0.35968 -1874.84 0.35968C-1441.57 0.35968 -1373.64 597.228 -940.366 597.228C-507.091 597.228 -439.166 0.35968 -5.89096 0.35968C427.384 0.35968 495.309 597.228 928.584 597.228C1361.86 597.228 1429.78 0.35968 1863.06 0.35968C2296.33 0.35968 2364.26 597.228 2797.53 597.228C3230.81 597.228 3298.73 0.35968 3732.01 0.35968C4165.28 0.35968 4666.48 597.228 4666.48 597.228" stroke="white" stroke-width="0.72067"/>
<path id="Line 8_4" d="M-2782.14 597.225C-2782.14 597.225 -2280.94 0.356735 -1847.66 0.356735C-1414.39 0.356735 -1346.46 597.225 -913.187 597.225C-479.912 597.225 -411.987 0.356735 21.2875 0.356735C454.562 0.356735 522.487 597.225 955.762 597.225C1389.04 597.225 1456.96 0.356735 1890.24 0.356735C2323.51 0.356735 2391.44 597.225 2824.71 597.225C3257.99 597.225 3325.91 0.356735 3759.19 0.356735C4192.46 0.356735 4693.66 597.225 4693.66 597.225" stroke="white" stroke-width="0.72067"/>
</g>
</g>
</g>
</g>
</g>
</g>
</g>
</g>
</g>
<defs>
<linearGradient id="paint0_linear_69_5452" x1="1048.06" y1="52.8658" x2="0" y2="52.8658" gradientUnits="userSpaceOnUse">
<stop stop-color="#E0E7FF"/>
<stop offset="1" stop-color="#FFEFDE"/>
</linearGradient>
<clipPath id="clip0_69_5452">
<rect y="-263.2" width="1290" height="632.131" rx="30.8859" fill="white"/>
</clipPath>
</defs>
</svg>
